{"title":"Turbo 2013 CAM READNFO XviD-Seedpeer","uid":8725510,"size":696929100,"categoryP":"video","categoryS":"movies","magnet":"?xt=urn:btih:b420896e16fcf0bd87a3df281bec9e4fe1ba730a&amp;dn=Turbo+2013+CAM+READNFO+XviD-Seedpeer&amp;tr=udp%3A%2F%2Ftracker.openbittorrent.com%3A80&amp;tr=udp%3A%2F%2Fopen.demonii.com%3A1337&amp;tr=udp%3A%2F%2Ftracker.coppersurfer.tk%3A6969&amp;tr=udp%3A%2F%2Fexodus.desync.com%3A6969","seeders":1,"leechers":0,"uploader":".BONE.","files":-1,"time":1374509455,"description":"[img]http://www.ultraimg.com/images/vMrpQ.jpg[/img]\n\nGeneral\n\nFormat : AVI\nFormat/Info : Audio Video Interleave\nFile size : 665 MiB\nDuration : 1h 26mn\nOverall bit rate : 1 077 Kbps\n\nVideo\nID : 0\nFormat : MPEG-4 Visual\nFormat profile : Advanced Simple@L5\nFormat settings, BVOP : 2\nFormat settings, QPel : No\nFormat settings, GMC : No warppoints\nFormat settings, Matrix : Default (H.263)\nCodec ID : XVID\nCodec ID/Hint : XviD\nDuration : 1h 26mn\nBit rate : 939 Kbps\nWidth : 640 pixels\nHeight : 272 pixels\nDisplay aspect ratio : 2.35:1\nFrame rate : 25.000 fps\nColor space : YUV\nChroma subsampling : 4:2:0\nBit depth : 8 bits\nScan type : Progressive\nCompression mode : Lossy\nBits/(Pixel*Frame) : 0.216\nStream size : 580 MiB (87%)\nWriting library : XviD 1.2.1 (UTC 2008-12-04)\n\nAudio\nID : 1\nFormat : MPEG Audio\nFormat version : Version 1\nFormat profile : Layer 3\nCodec ID : 55\nCodec ID/Hint : MP3\nDuration : 1h 26mn\nSource duration : 1h 26mn\nBit rate mode : Constant\nBit rate : 128 Kbps\nChannel(s) : 2 channels\nSampling rate : 44.1 KHz\nCompression mode : Lossy\nStream size : 78.9 MiB (12%)\nAlignment : Aligned on interleaves\nInterleave, duration : 40 ms (1.00 video frame)\n","torrent":{"xt":"urn:btih:b420896e16fcf0bd87a3df281bec9e4fe1ba730a","amp;dn":"Turbo+2013+CAM+READNFO+XviD-Seedpeer","amp;tr":["udp%3A%2F%2Ftracker.openbittorrent.com%3A80","udp%3A%2F%2Fopen.demonii.com%3A1337","udp%3A%2F%2Ftracker.coppersurfer.tk%3A6969","udp%3A%2F%2Fexodus.desync.com%3A6969"],"infoHash":"b420896e16fcf0bd87a3df281bec9e4fe1ba730a","infoHashBuffer":{"type":"Buffer","data":[180,32,137,110,22,252,240,189,135,163,223,40,27,236,158,79,225,186,115,10]},"announce":[],"urlList":[]}}